<?xml version="1.0" encoding="UTF-8" standalone="no"?>
<!-- Created with Inkscape (http://www.inkscape.org/) -->

<svg
   width="339.54755mm"
   height="90.835243mm"
   viewBox="0 0 339.54754 90.835243"
   version="1.1"
   id="svg1"
   inkscape:version="1.3.2 (091e20e, 2023-11-25)"
   sodipodi:docname="nest.svg"
   xmlns:inkscape="http://www.inkscape.org/namespaces/inkscape"
   xmlns:sodipodi="http://sodipodi.sourceforge.net/DTD/sodipodi-0.dtd"
   xmlns="http://www.w3.org/2000/svg"
   xmlns:svg="http://www.w3.org/2000/svg">
  <sodipodi:namedview
     id="namedview1"
     pagecolor="#ffffff"
     bordercolor="#000000"
     borderopacity="0.25"
     inkscape:showpageshadow="2"
     inkscape:pageopacity="0.0"
     inkscape:pagecheckerboard="0"
     inkscape:deskcolor="#d1d1d1"
     inkscape:document-units="mm"
     inkscape:zoom="0.32201368"
     inkscape:cx="653.69894"
     inkscape:cy="431.65868"
     inkscape:window-width="1392"
     inkscape:window-height="1027"
     inkscape:window-x="0"
     inkscape:window-y="325"
     inkscape:window-maximized="0"
     inkscape:current-layer="layer1" />
  <defs
     id="defs1" />
  <g
     inkscape:label="Layer 1"
     inkscape:groupmode="layer"
     id="layer1"
     transform="translate(-76.993748,-122.76667)">
    <path
       style="fill:#ffffff;fill-opacity:1;stroke-width:0.264583"
       d="m 146.22038,148.42965 -2.3951,-0.80448 -18.05588,-2.77607 -14.02862,1.29131 -13.179461,3.73973 -11.09215,6.59697 -8.654283,15.13876 -1.529255,4.59091 1.649034,7.58488 8.728946,13.18649 0.641577,3.47208 9.639393,5.82551 8.257509,4.41349 9.91849,-0.14237 10.96255,1.70845 3.13444,0.21277 8.34205,-1.45712 11.83456,-1.98092 9.81245,-10.71971 7.08305,-12.38856 1.01759,-6.30104 0.75863,-5.51244 -3.9658,-11.6306 z"
       id="path4" />
    <ellipse
       style="fill:#9e71fe;fill-opacity:1;stroke-width:0.352695"
       id="ellipse8"
       cx="-206.29655"
       cy="2.1995616"
       rx="17.867594"
       ry="13.66488"
       transform="matrix(-0.55162623,-0.83409142,0.86274442,-0.50564025,0,0)" />
    <ellipse
       style="fill:#ffffff;stroke-width:0.352695"
       id="ellipse7"
       cx="-209.24767"
       cy="4.2928081"
       rx="17.867594"
       ry="13.66488"
       transform="matrix(-0.55162623,-0.83409142,0.86274442,-0.50564025,0,0)" />
    <ellipse
       style="fill:#9e71fe;fill-opacity:1;stroke-width:0.352695"
       id="ellipse6"
       cx="-194.87151"
       cy="65.679016"
       rx="17.867594"
       ry="13.66488"
       transform="matrix(-0.21534381,-0.9765383,0.98676839,-0.1621362,0,0)" />
    <ellipse
       style="fill:#ffffff;stroke-width:0.352695"
       id="ellipse5"
       cx="-195.22339"
       cy="71.128006"
       rx="17.867594"
       ry="13.66488"
       transform="matrix(-0.21534381,-0.9765383,0.98676839,-0.1621362,0,0)" />
    <ellipse
       style="fill:#9e71fe;fill-opacity:1;stroke-width:0.352695"
       id="ellipse3"
       cx="-32.417717"
       cy="221.74176"
       rx="17.867594"
       ry="13.66488"
       transform="matrix(0.67602083,-0.73688251,0.69918607,0.71493975,0,0)" />
    <rect
       style="fill:#ffffff;fill-opacity:1;stroke-width:0.264583"
       id="rect5"
       width="8.6711302"
       height="11.019493"
       x="116.29356"
       y="187.08665"
       ry="0.60000002" />
    <ellipse
       style="fill:#ffffff;stroke-width:0.352695"
       id="path3"
       cx="-32.166298"
       cy="224.39067"
       rx="17.867594"
       ry="13.66488"
       transform="matrix(0.67602083,-0.73688251,0.69918607,0.71493975,0,0)" />
    <g
       id="g9"
       transform="matrix(1.2298876,-0.14514666,0.14514916,1.2299088,84.031444,-40.791369)">
      <path
         style="fill:#ffffff;fill-opacity:1;stroke-width:0.264583"
         d="m 55.984375,141.62116 -26.513163,36.33615 -0.06619,-1.575 -2.764178,-10.823 0.694978,1.69884 3.320455,-7.41311 2.162154,-2.31659 5.559827,-6.25481 4.63319,-4.16987 6.023147,-4.24709 5.250947,-1.46717 z"
         id="path6"
         sodipodi:nodetypes="cccccccccccc" />
      <g
         id="g8">
        <path
           style="fill:#9e71fe;fill-opacity:1;stroke-width:0.264583"
           d="m 56.358723,143.99165 -6.108245,4.80515 -14.82267,17.91751 -6.495797,8.19878 1.365964,4.10942 1.872106,-0.2546 3.013398,-2.03608 4.642265,-3.0134 2.931957,-1.95464 -2.117524,-1.1402 4.397936,-1.71031 1.140206,-1.71031 3.664944,-4.47937 0.325774,-1.3031 -2.036083,-0.24433 3.013401,-1.38453 1.873194,-2.60619 1.873195,-3.5835 1.547421,-7.00412 z"
           id="path7"
           sodipodi:nodetypes="cccccccccccccccccccc" />
        <path
           id="path8"
           style="fill:#000000;stroke-width:0.5"
           d="m 56.873531,139.6969 c -0.574298,-0.0349 -2.454674,0.37721 -4.079337,0.91519 -1.906229,0.6312 -4.843105,2.06893 -6.507614,3.18585 -0.632229,0.42424 -1.659141,1.24812 -2.282031,1.8309 -0.622889,0.58279 -1.13223,0.99449 -1.13223,0.91519 0,-0.0793 -0.07437,-0.14391 -0.165365,-0.14366 -0.26818,7.4e-4 -2.202543,1.83905 -3.027722,2.87734 -0.60275,0.75825 -0.786133,0.91634 -0.876433,0.75499 -0.09489,-0.16955 -0.219916,-0.11143 -0.736905,0.34365 -1.047129,0.92171 -2.901117,3.20306 -3.595647,4.42402 -0.206939,0.3638 -0.396446,0.6873 -0.420646,0.7183 -0.02418,0.0311 -0.120457,-0.0487 -0.214457,-0.17725 -0.15602,-0.21337 -0.2233,-0.1726 -0.771529,0.47233 -0.689599,0.81123 -1.601345,2.12607 -1.842265,2.65668 -0.13398,0.29506 -0.200337,0.33353 -0.355017,0.20516 -0.15289,-0.12689 -0.239454,-0.0943 -0.443384,0.16639 -1.065179,1.36154 -2.411253,3.83316 -2.856673,5.2462 -0.23542,0.74682 -0.367642,0.86149 -0.502812,0.43563 -0.04618,-0.14552 -0.137788,-0.26459 -0.203088,-0.26459 -0.19839,0 -1.305114,1.79583 -2.133203,3.46078 l 5.765539,13.64171 c 0.46312,-0.23832 0.386641,-0.29235 -0.888317,-0.62684 -0.49431,-0.12969 -0.87451,-0.2602 -0.84491,-0.2899 0.02963,-0.0296 0.653369,-0.19921 1.386479,-0.37672 2.357547,-0.57085 5.208492,-1.85488 6.674011,-3.00602 0.567219,-0.44554 0.625307,-0.63107 0.198437,-0.63407 -0.353119,-0.002 -0.832093,-0.25552 -0.496093,-0.26252 0.382729,-0.008 2.988974,-1.34782 4.233333,-2.17712 0.691219,-0.46066 1.662535,-1.2099 2.158524,-1.66502 0.986829,-0.90569 0.985854,-1.04758 -0.0088,-1.05058 -0.600239,-0.002 -0.757252,-0.18832 -0.264583,-0.31368 0.50521,-0.12856 2.367769,-1.34545 3.306258,-2.16007 1.115269,-0.96812 1.369486,-1.30922 1.161686,-1.5596 -0.121899,-0.14689 0.06419,-0.3891 0.935861,-1.21801 1.762298,-1.67584 3.563026,-4.2884 3.140376,-4.55631 -0.09725,-0.0616 -0.319913,-0.11321 -0.494543,-0.11421 -0.2893,-0.002 -0.271672,-0.0351 0.198437,-0.37775 0.63698,-0.46423 1.428794,-1.3205 2.237073,-2.41846 0.48557,-0.65963 0.603506,-0.9186 0.558106,-1.22783 -0.0436,-0.29703 0.05204,-0.53539 0.394808,-0.98443 0.616029,-0.80704 0.988287,-1.57364 1.552876,-3.19568 1.001219,-2.8764 1.58777,-5.84392 1.74253,-8.81703 0.08425,-1.6185 -0.118858,-4.36924 -0.338998,-4.58938 -0.02417,-0.0242 -0.0797,-0.0384 -0.161747,-0.0434 z m -4.141349,2.40089 c 0.06716,0.0128 0.04521,0.11667 -0.05994,0.31316 -0.17192,0.32116 -0.187985,1.51921 -0.02791,2.07739 0.14059,0.49021 0.327584,0.24884 -5.90765,7.62796 -4.056326,4.80046 -5.822147,7.08284 -13.718542,16.5747 -11.756586,14.132 3.88725,5.32163 -7.88479,1.71979 -6.19578,-1.89569 1.473759,-3.71079 1.546158,-3.43907 0.01936,0.0727 0.133485,0.93023 0.253215,1.90583 0.11973,0.9756 0.310363,2.27107 0.527616,2.84427 l 0.28961,0.7641 c 0.518747,0.84018 1.884745,1.50973 1.926198,1.11522 l -1.038637,-2.39631 c -0.836361,-1.92963 -0.496371,-4.79856 0.129708,-6.62802 0.36569,-1.06856 1.151643,-2.69855 1.301213,-2.69855 0.0571,0 0.10387,0.27131 0.10387,0.60255 0,0.76462 0.352856,2.33263 0.597896,2.65617 0.16691,0.22038 0.18837,0.13951 0.19637,-0.74517 0.01173,-1.32002 0.282838,-2.77608 0.727088,-3.90519 0.385779,-0.98053 1.117794,-2.36313 1.205094,-2.27583 0.02872,0.0287 -0.01527,0.69154 -0.09767,1.47278 -0.12499,1.18539 -0.113601,1.70884 0.06873,3.16363 0.12016,0.95879 0.300993,2.05554 0.402043,2.43757 0.363313,1.42095 1.373609,0.36314 1.372009,0.12196 l -0.155029,-0.5519 -0.100252,-0.46302 c -0.4382,-2.02553 -0.390363,-5.02021 0.104386,-6.54844 0.47179,-1.45733 2.078644,-4.11404 2.960543,-4.89479 l 0.29869,-0.26459 -0.07958,0.33073 c -0.2787,1.1537 -0.381844,2.50268 -0.318844,4.16719 0.06515,1.72237 0.384794,3.82741 0.619084,4.07675 0.0557,0.0593 0.283943,-0.12345 0.507463,-0.40566 0.371859,-0.46951 0.395382,-0.55707 0.279052,-1.03352 -0.06993,-0.28639 -0.162472,-1.29482 -0.205672,-2.24069 -0.09138,-2.00088 0.109622,-3.44814 0.680062,-4.89583 0.41645,-1.05687 1.559801,-2.85243 2.18953,-3.43855 l 0.426331,-0.39687 -0.07803,0.33072 c -0.29968,1.27125 -0.486792,2.90944 -0.486792,4.25814 0,1.50715 0.213792,3.41479 0.382922,3.41478 0.0439,0 0.249253,-0.2123 0.456303,-0.4718 0.375699,-0.47082 0.376368,-0.4758 0.362768,-2.34818 -0.02538,-3.50941 0.660287,-5.52123 2.527495,-7.41815 0.594869,-0.60435 1.025719,-0.9573 0.987019,-0.80822 -0.03779,0.14552 -0.162712,0.59199 -0.277502,0.99218 -0.31074,1.08328 -0.403336,2.96223 -0.208256,4.21628 0.09201,0.59148 0.204414,1.07326 0.250114,1.07126 0.30189,-0.0151 0.513413,-0.70458 0.598413,-1.95079 0.2086,-3.05968 1.238745,-5.35178 2.926953,-6.5133 0.31583,-0.21729 0.604738,-0.39532 0.642338,-0.39532 0.03755,0 -0.05001,0.34231 -0.194303,0.76068 -0.27755,0.80476 -0.361113,2.54614 -0.156063,3.25148 l 0.109037,0.37362 0.250114,-0.27647 c 0.14974,-0.16546 0.294935,-0.60762 0.361735,-1.10123 0.24379,-1.80137 0.959714,-3.23021 1.954403,-3.90053 0.25057,-0.16884 0.406717,-0.24738 0.473873,-0.23461 z m 3.203422,3.43079 c 0.01803,0.0178 -0.0721,0.44465 -0.199988,0.94827 -0.26551,1.04551 -0.680521,1.63612 -1.62109,2.30632 -0.355809,0.25354 -0.648673,0.50557 -0.652673,0.56017 -0.01178,0.18868 0.72354,0.092 1.30328,-0.17105 0.320059,-0.14526 0.602785,-0.24274 0.628385,-0.21704 0.02566,0.0257 -0.192752,0.38064 -0.485242,0.7891 -0.379879,0.53049 -0.861579,0.95963 -1.686718,1.50172 -1.386369,0.91083 -1.277562,0.83008 -1.210262,0.89658 0.102079,0.10083 1.44948,-0.19844 2.04742,-0.45475 0.564559,-0.24194 0.586547,-0.24277 0.463537,-0.0129 -0.486059,0.90822 -2.700696,2.37011 -4.836914,3.19205 -1.128149,0.43404 -1.163175,0.52807 -0.192236,0.52607 1.048089,-0.003 2.361188,-0.27172 3.424597,-0.70125 l 0.802018,-0.32349 -0.297656,0.53536 c -0.773369,1.39309 -2.306172,2.63383 -4.04213,3.27112 -0.74923,0.27505 -0.955294,0.39806 -0.780314,0.46716 0.214539,0.0847 2.04339,-0.0939 2.871659,-0.28061 0.29344,-0.0661 0.272104,-0.023 -0.187586,0.38344 -1.240318,1.09651 -3.20638,2.00519 -5.633247,2.60346 -0.90951,0.22421 -1.742944,0.44448 -1.852084,0.48938 -0.699179,0.28806 2.713802,0.38064 4.53099,0.12299 0.636659,-0.0903 1.155384,-0.13094 1.152384,-0.0904 -0.01036,0.15228 -1.216558,1.0215 -2.223637,1.60249 -1.213828,0.7003 -3.032142,1.44228 -5.0276,2.05155 -1.655368,0.50549 -1.56719,0.66985 0.290939,0.54209 1.363308,-0.0937 2.925226,-0.44401 4.156335,-0.93173 0.456,-0.1807 0.791591,-0.26757 0.745691,-0.19327 -0.04591,0.0743 -0.55133,0.48155 -1.122929,0.90537 -1.092489,0.81003 -2.213506,1.39347 -3.428214,1.78336 -1.173499,0.37664 -1.084957,0.46519 0.469222,0.46819 l 1.449007,0.003 -0.910022,0.58911 c -1.635519,1.0595 -3.39414,1.59726 -6.332947,1.93528 -0.782169,0.09 -1.422135,0.2036 -1.422135,0.2527 0,0.17454 4.056042,0.89126 5.22552,0.92346 0.23634,0.006 0.229224,0.028 -0.06614,0.19895 -0.78424,0.45401 -2.561683,0.85154 -5.34076,1.19528 -1.086049,0.13433 -0.509794,0.33397 1.254704,0.43408 l 1.63866,0.093 -0.661459,0.30799 c -1.253218,0.58378 -2.385024,0.97061 -3.770312,1.28829 v -5.2e-4 c -0.763989,0.1752 -1.924848,0.35205 -2.579688,0.39275 l -1.190625,0.0739 1.054716,-0.4749 c 1.305139,-0.58747 1.46952,-0.73278 0.82889,-0.73278 -0.266239,0 -0.934067,-0.067 -1.484147,-0.14882 -0.810609,-0.12057 -0.972258,-0.18259 -0.853178,-0.32608 0.19697,-0.23732 1.999583,-0.92351 3.411162,-1.29863 1.232048,-0.32742 1.224215,-0.34845 -0.245463,-0.61908 -1.315339,-0.24222 -1.3381,-0.30696 -0.249081,-0.71831 3.295247,-1.2447 5.091789,-1.99734 6.179468,-2.5895 0.678969,-0.36965 1.204704,-0.70216 1.168404,-0.73846 -0.03634,-0.0363 -0.674292,0.0581 -1.418001,0.20981 -1.424959,0.29063 -4.011783,0.38253 -4.156852,0.14779 -0.04346,-0.0703 0.325161,-0.54975 0.819071,-1.06557 l 0.898136,-0.93792 2.315105,-0.77773 c 3.647666,-1.22588 3.624286,-1.20303 1.124479,-1.11053 l -2.116667,0.0786 0.529167,-0.49041 c 0.907799,-0.84053 3.332902,-2.35145 6.378938,-3.97444 0.52545,-0.27997 0.934155,-0.53035 0.907955,-0.55655 -0.02614,-0.0262 -0.956258,0.16591 -2.067057,0.42685 -1.110789,0.26095 -2.069619,0.45768 -2.130619,0.43718 -0.06097,-0.0205 0.179374,-0.33543 0.534334,-0.6997 0.53873,-0.55286 0.904743,-0.76879 2.214852,-1.30741 2.675907,-1.10012 3.762804,-1.56979 3.723804,-1.60869 -0.02064,-0.0206 -0.781354,0.0491 -1.690853,0.15503 -2.449098,0.28519 -2.423049,0.30178 -1.35754,-0.85318 0.795339,-0.86211 1.091958,-1.07111 2.680457,-1.88981 0.982269,-0.50625 1.607352,-0.89189 1.389062,-0.85679 -0.21828,0.035 -0.71868,0.10343 -1.11156,0.15193 l -0.714168,0.0884 0.28577,-0.40152 c 0.46575,-0.65409 0.957406,-0.99803 3.088184,-2.16163 2.187638,-1.19464 2.235073,-1.30779 0.446484,-1.06815 -0.482739,0.0646 -0.861492,0.0724 -0.841292,0.0176 0.14562,-0.39472 1.966389,-2.27826 2.584338,-2.67374 1.247819,-0.79858 3.138767,-1.92461 3.173967,-1.88981 z m -24.841378,31.74484 c 1.371895,-0.0223 2.654681,-0.002 2.570386,0.0827 -0.07077,0.0708 -0.597572,0.2488 -1.170471,0.39532 -0.70732,0.18086 -1.427212,0.26103 -2.243791,0.25063 l 0.843876,-0.72863 z"
           sodipodi:nodetypes="sssssscssscsssscsssccscssccsccscssccssssssssssssssssccccsssscsscsccccsccccssssscccssscssssccssscccsssssccccssscssccccscssscscscscssscccsssssccccccccssssssssssccccccssssssssssccccsccsssscsccccs" />
      </g>
    </g>
    <path
       style="fill:#ffffff;fill-opacity:1;stroke-width:0.264583"
       d="m 95.602219,179.76496 -1.025261,-8.08815 -6.151549,5.69587 8.657738,15.49281 11.619593,3.98711 5.58196,-9.68301 z"
       id="path9" />
    <path
       style="fill:#000000"
       d="m 125.10215,213.47347 c -0.3638,-0.0549 -1.37583,-0.26942 -2.24896,-0.47679 -0.87312,-0.20736 -2.50676,-0.44856 -3.63031,-0.53599 -1.12354,-0.0874 -2.58206,-0.32127 -3.24114,-0.51963 -1.0343,-0.31127 -1.37038,-0.30537 -2.45511,0.0432 -2.05452,0.66013 -6.39941,0.58322 -8.7974,-0.15573 -3.39418,-1.04593 -6.620339,-3.22761 -8.587749,-5.80745 -0.8672,-1.13715 -1.24903,-1.39882 -2.75784,-1.88996 -5.26079,-1.71246 -9.3777,-6.06214 -11.11789,-11.74648 -0.3054,-0.99759 -0.55527,-2.03879 -0.55527,-2.31377 0,-0.27498 -0.57535,-1.21397 -1.27856,-2.08665 -2.55715,-3.17338 -3.55171,-6.10483 -3.42798,-10.10386 0.0554,-1.78972 0.13273,-2.24934 0.28169,-1.67358 0.65445,2.52954 1.61489,5.1905 2.27961,6.31581 l 0.76126,1.28872 0.11094,-2.08247 c 0.0936,-1.75802 0.0163,-2.2916 -0.49661,-3.42475 -2.28583,-5.05016 -1.12381,-11.92097 2.92768,-17.31085 2.10176,-2.79607 5.54094,-5.84623 4.41825,-3.9185 -0.89591,1.53836 -1.60844,4.09387 -1.5882,5.69609 l 0.0193,1.5297 0.47153,-1.32291 c 1.83631,-5.1519 5.96779,-10.0788 10.16986,-12.12782 1.09303,-0.53298 2.08396,-0.96933 2.20207,-0.96966 0.11812,-3.4e-4 -0.65375,0.91061 -1.71525,2.02433 -3.32386,3.48735 -5.05486,8.06204 -4.17062,11.02211 0.22574,0.75568 0.64629,1.67161 0.93454,2.03541 l 0.52411,0.66146 0.006,-1.36119 c 0.0168,-3.8917 3.27407,-10.06243 7.284159,-13.79954 2.69515,-2.51168 5.10592,-3.61053 9.12589,-4.15967 l 1.19063,-0.16264 -1.80811,0.92963 c -3.07976,1.58345 -5.542,3.6968 -7.09871,6.09287 -0.55828,0.8593 -1.01506,1.65154 -1.01506,1.76052 0,0.40463 2.79239,-0.88018 3.70511,-1.70477 1.6101,-1.45463 3.44235,-2.59897 6.85632,-4.28217 l 3.28539,-1.6198 -1.16872,-0.20249 -1.16872,-0.2025 1.5875,-0.74948 c 2.28519,-1.07888 5.2861,-1.60839 8.59895,-1.51727 2.97437,0.0818 2.98715,0.1535 0.15197,0.85228 -2.47032,0.60886 -4.71238,1.67025 -6.6861,3.16519 -1.48274,1.12306 -3.25545,3.11154 -3.25545,3.6517 0,0.43248 0.8008,0.18979 1.96393,-0.59519 1.59582,-1.07701 4.7717,-2.52744 6.6781,-3.04991 2.12816,-0.58324 6.2192,-0.77848 8.10573,-0.38684 1.57109,0.32616 5.44208,2.10921 5.97616,2.75274 0.24652,0.29705 -0.10512,0.38444 -2.01843,0.50164 -1.27432,0.0781 -2.88757,0.29927 -3.58498,0.49157 l -1.26804,0.34964 1.66491,0.5378 c 1.30521,0.42162 1.9793,0.49518 3.12012,0.34051 1.5219,-0.20634 3.68265,-0.0613 5.34334,0.35874 l 0.97772,0.24728 -0.77859,1.82965 c -0.78706,1.84955 1.66572,4.22972 1.88964,4.45364 l 1.17199,4.46555 5.60084,13.31564 c -0.0744,0.3638 -0.10544,0.69191 -0.0689,0.72913 0.0365,0.0372 1.92202,-0.82626 4.19004,-1.91885 3.64244,-1.7547 4.2604,-2.14857 5.2952,-3.37497 0.64433,-0.76364 1.29409,-1.61642 1.4439,-1.89505 0.2182,-0.40585 0.30982,-0.13383 0.46059,1.36746 0.10352,1.03075 0.10481,2.13684 0.003,2.45798 -0.11985,0.3776 -0.0879,0.52367 0.0905,0.41344 0.43917,-0.27142 1.27141,-2.74525 1.74515,-5.18748 0.76085,-3.92229 0.65588,-3.78655 1.43226,-1.85208 0.63236,1.57563 0.69048,2.04139 0.69339,5.55625 0.003,3.53027 -0.0561,4.00539 -0.73992,5.95312 -0.67977,1.93631 -1.57601,3.69873 -2.75823,5.42396 -0.43474,0.63443 -0.43364,0.64594 0.0268,0.2816 0.41718,-0.33009 0.51157,-0.33009 0.72045,0 0.1322,0.20892 0.24219,0.58822 0.24442,0.84288 0.0181,2.06992 3.19714,-3.26612 4.12457,-6.92316 0.31307,-1.23449 0.40524,-2.54802 0.33782,-4.81463 -0.0814,-2.73762 -0.0494,-3.03426 0.26336,-2.4373 0.78369,1.49593 1.39427,3.76547 1.55052,5.76327 0.0945,1.20849 0.23943,1.89224 0.34016,1.60506 0.71872,-2.0489 1.08935,5.14171 0.40199,7.79895 -1.08715,4.20276 -4.49505,8.62833 -8.15803,10.59417 -0.72359,0.38834 -1.42511,1.09624 -2.03134,2.04983 -1.76071,2.76954 -5.70423,5.40441 -9.92188,6.62932 -2.9292,0.85072 -4.95229,1.1264 -8.00656,1.09104 -1.75175,-0.0203 -3.34867,0.11088 -4.16427,0.34205 l -1.32292,0.37494 2.38125,0.36695 c 2.94413,0.45368 10.7092,0.48404 12.15596,0.0475 1.5722,-0.47436 1.44471,-0.19296 -0.31503,0.69535 -3.44579,1.73943 -7.62257,2.54093 -11.19675,2.14858 -1.56818,-0.17214 -2.12989,-0.11823 -3.37917,0.32432 -2.81746,0.99808 -6.81782,1.46815 -9.30355,1.09325 z m 7.24131,-1.85518 1.02361,-0.16909 -1.27122,-0.48255 c -1.20605,-0.45781 -1.34668,-0.45975 -2.7434,-0.0379 l -1.47217,0.44463 0.92604,0.17509 c 1.29893,0.24561 2.3478,0.26632 3.53714,0.0698 z m -22.85173,-1.78893 c 0,-0.0615 -0.44648,-0.25902 -0.99219,-0.43899 -0.5457,-0.17997 -2.42093,-1.00672 -4.16718,-1.83721 -1.74625,-0.83049 -3.47266,-1.59107 -3.83646,-1.69018 -0.570689,-0.15546 -0.511899,-0.0416 0.42848,0.8298 1.48647,1.37743 3.48023,2.41731 5.4588,2.84712 1.66583,0.36187 3.10855,0.49621 3.10855,0.28946 z m 16.80104,-0.67546 c 2.06149,-0.52991 5.95313,-2.1873 5.95313,-2.53533 0,-0.0955 -0.20396,-0.0954 -0.45325,2.9e-4 -0.24929,0.0957 -2.42935,0.16826 -4.84457,0.16133 -2.41523,-0.007 -5.81291,0.16471 -7.5504,0.38143 -1.73749,0.21672 -4.1711,0.39681 -5.40803,0.4002 -2.46353,0.007 -2.46353,0.13712 0,1.08427 3.58112,1.37684 8.18347,1.5668 12.30312,0.50781 z m -9.30286,-4.4629 2.05456,-0.44952 -2.11205,-0.33233 c -1.16163,-0.18278 -3.48582,-0.73656 -5.16486,-1.23063 -3.02221,-0.88931 -5.05716,-1.27859 -8.87781,-1.69833 l -1.97178,-0.21662 1.10476,0.98039 c 1.64656,1.46119 4.60909,2.91444 6.77166,3.32177 2.20658,0.41563 5.21095,0.27826 8.19552,-0.37473 z m 26.43504,-0.16898 c 2.62331,-0.39542 6.46434,-1.52698 6.94491,-2.04596 0.18612,-0.20099 0.10776,-0.22992 -0.26422,-0.0976 -2.03198,0.72307 -10.38329,0.78893 -15.86,0.12507 -2.07569,-0.25161 -2.53814,-0.22823 -3.77031,0.1906 -0.77244,0.26255 -1.40443,0.56366 -1.40443,0.66912 0,0.23321 3.19919,0.96037 5.55625,1.26291 2.75194,0.35323 6.02001,0.31453 8.7978,-0.10418 z m -19.38113,-2.27 c 0.94588,-0.15223 2.37048,-0.46488 3.16576,-0.69478 l 1.44597,-0.418 -1.84284,-0.49665 c -6.81462,-1.83658 -12.66349,-2.44044 -15.06279,-1.55514 -0.45477,0.1678 -0.37248,0.28493 0.65649,0.9345 3.46246,2.18575 7.31983,2.92493 11.63741,2.23007 z m -27.836549,-1.48571 c -1.06099,-0.35327 -3.41736,-1.35013 -5.23637,-2.21524 l -3.30729,-1.57292 1.50446,1.4272 c 1.82458,1.73088 3.94214,2.77811 6.12509,3.02911 2.74234,0.31534 3.09458,0.0579 0.91411,-0.66815 z m 52.442799,-1.02707 c 4.27342,-0.74535 9.3097,-2.64388 11.27541,-4.2505 0.48456,-0.39604 0.4837,-0.40267 -0.0306,-0.23612 -0.94091,0.30467 -4.93145,1.21013 -8.85683,2.00961 -3.36846,0.68605 -4.8185,0.88795 -8.07651,1.12453 -0.98033,0.0712 -4.62247,1.54404 -4.62694,1.8711 -0.005,0.35975 7.41956,-0.0135 10.31549,-0.51862 z m -14.06747,-1.04878 c 2.99323,-0.70564 6.79511,-2.73904 10.03929,-5.36941 0.62216,-0.50445 1.07855,-0.96983 1.01419,-1.03418 -0.18612,-0.18613 -5.5697,0.94495 -7.655,1.6083 -1.0443,0.33219 -3.88899,1.54835 -6.32154,2.70258 -4.08335,1.93751 -4.3575,2.11115 -3.57187,2.2622 1.60688,0.30895 4.82128,0.22507 6.49493,-0.16949 z m -25.48856,-0.70081 1.54266,-0.3098 -2.88759,-0.59484 c -6.55041,-1.34937 -12.504649,-3.14105 -13.808039,-4.15496 -0.18542,-0.14423 -0.39895,-0.20042 -0.47452,-0.12485 -0.23056,0.23056 2.29521,2.31066 4.13156,3.40255 3.111139,1.84989 7.652409,2.5538 11.495929,1.7819 z m -15.345019,-1.60323 c -2.12098,-1.53207 -8.27794,-8.03215 -9.97101,-10.52668 -0.40619,-0.59848 -0.40398,-0.51542 0.0248,0.93035 0.69298,2.33664 1.6755,4.10314 3.22532,5.79889 1.70556,1.86614 3.32906,3.00019 5.39503,3.76851 2.00583,0.74596 2.32825,0.753 1.32587,0.0289 z m 28.913929,-0.89064 c 2.97194,-0.65722 5.39566,-1.79696 11.06873,-5.205 7.60058,-4.56597 7.56826,-4.53529 3.93571,-3.73666 -1.59937,0.35163 -3.32467,0.77338 -3.83399,0.93721 -1.68494,0.54201 -4.59212,2.12426 -7.40773,4.0317 -2.70444,1.83214 -6.92231,4.1306 -7.57998,4.1306 -0.17979,0 -0.39729,0.11391 -0.48334,0.25313 -0.1917,0.31018 1.97654,0.10297 4.3006,-0.41098 z m 25.70854,-0.25203 c 2.54294,-0.59938 4.85222,-1.85616 6.90815,-3.75964 1.79739,-1.6641 2.42774,-2.57968 1.24044,-1.80174 -0.32815,0.21502 -1.7588,0.81162 -3.17922,1.32579 -3.25464,1.17814 -4.52123,1.81668 -5.99774,3.02373 -0.64607,0.52815 -1.36044,1.10532 -1.5875,1.2826 -0.35561,0.27763 -0.32114,0.32293 0.24861,0.32681 0.36381,0.002 1.42907,-0.17642 2.36726,-0.39755 z m -31.62314,-1.55171 c 2.35509,-0.70698 6.1231,-2.51062 8.88297,-4.25201 0.80036,-0.50501 1.38263,-0.92089 1.29392,-0.92417 -0.0887,-0.003 -2.46996,0.66425 -5.29167,1.48342 -8.51374,2.47162 -14.32062,3.79929 -16.62653,3.80142 -1.07469,0.001 -0.81145,0.42456 0.38365,0.61732 0.43656,0.0704 2.63922,0.0954 4.89479,0.0555 3.553,-0.0628 4.41667,-0.16724 6.46287,-0.7815 z m 45.50928,-1.85163 c 0.77622,-0.49654 1.71943,-1.30677 2.09602,-1.8005 0.72954,-0.95649 1.87676,-3.35247 1.69311,-3.53611 -0.0605,-0.0605 -0.47767,0.45539 -0.92701,1.14646 -0.44935,0.69107 -1.68713,2.1197 -2.75063,3.17472 -1.0635,1.05503 -1.8412,1.91823 -1.72822,1.91823 0.11298,0 0.84051,-0.40626 1.61673,-0.9028 z m -56.6685,-0.0608 c 0.5457,-0.0902 0.99219,-0.2393 0.99219,-0.33135 0,-0.35371 -5.97928,-2.4549 -9.086599,-3.19313 -3.45719,-0.82135 -5.62208,-1.56276 -8.30976,-2.84584 -0.9095,-0.4342 -1.65364,-0.70092 -1.65364,-0.59273 0,0.2971 3.02139,3.03302 4.38743,3.97288 1.59063,1.09438 4.28097,2.29863 6.14522,2.75072 1.58109,0.38342 5.835169,0.51879 7.525159,0.23945 z m 39.09219,-1.7158 c 1.91116,-0.62425 5.32994,-2.32669 6.35,-3.16208 0.56369,-0.46165 0.58324,-0.52188 0.13229,-0.40754 -0.29104,0.0738 -1.62216,0.31793 -2.95804,0.54253 -1.33588,0.2246 -3.12182,0.66363 -3.96875,0.97563 -1.61426,0.59466 -4.65996,2.47015 -5.4763,3.37219 -0.45788,0.50596 -0.37915,0.50108 1.86145,-0.11534 1.28676,-0.354 3.11346,-0.89642 4.05935,-1.20539 z m -29.48349,-0.25652 c 0.86347,-0.15954 1.66824,-0.35072 1.78837,-0.42485 0.56264,-0.34718 -5.76905,-2.18143 -10.27259,-2.9759 -1.74625,-0.30806 -3.41313,-0.62769 -3.70417,-0.71029 -0.98549,-0.2797 2.74282,2.18982 4.59476,3.04344 2.8405,1.30927 4.79689,1.58432 7.59363,1.0676 z m 39.06155,-1.98579 c 1.67169,-0.8471 3.93914,-2.95475 4.84891,-4.50714 0.67342,-1.14911 2.07228,-4.59409 1.86546,-4.59409 -0.14558,0 -5.92619,6.67009 -7.28028,8.40052 -0.59783,0.76398 -1.0207,1.38906 -0.93972,1.38906 0.081,0 0.75852,-0.30976 1.50563,-0.68835 z m -51.93345,-1.77243 c -0.66464,-0.47962 -7.316659,-4.17652 -10.353819,-5.75419 -3.66462,-1.90361 -3.86688,-1.97685 -3.43958,-1.24546 1.25045,2.14035 4.68149,4.80049 7.61654,5.90524 2.09097,0.78704 6.941969,1.64654 6.176859,1.09441 z m 27.67101,-0.53537 c 4.27195,-0.75601 7.97572,-1.6425 11.91162,-2.851 3.1913,-0.97988 3.04549,-0.77424 3.60263,-5.08106 0.66646,-5.15183 -0.95229,-8.95711 -4.51039,-10.60283 -0.95988,-0.44398 -1.68543,-0.55555 -3.46323,-0.53257 -3.97006,0.0513 -8.64817,2.22202 -12.33384,5.72304 -3.65257,3.46959 -6.02561,7.38068 -6.88723,11.35113 -0.66651,3.07135 -0.80974,2.96988 3.94661,2.79607 2.47818,-0.0906 5.45583,-0.39964 7.73383,-0.80278 z m -14.94896,-1.00052 c 0,-1.84895 1.57189,-6.19494 3.06073,-8.46237 0.43915,-0.6688 0.4239,-0.735 -0.64028,-2.78049 -2.12796,-4.09022 -5.65585,-7.78103 -9.02947,-9.44648 -1.50142,-0.74119 -1.98026,-0.84625 -3.8572,-0.84625 -1.9227,0 -2.27684,0.0824 -3.44515,0.80146 -2.806719,1.72748 -4.075959,4.87927 -4.278289,10.62395 -0.19397,5.50722 -0.23566,5.39362 2.38744,6.50585 2.868689,1.21638 3.990779,1.56051 9.253509,2.838 2.43732,0.59164 4.69951,1.18344 5.02708,1.3151 1.15729,0.46515 1.52163,0.33375 1.52163,-0.54877 z m 32.69489,-0.12108 c 3.24771,-0.88933 6.55167,-2.94364 8.43943,-5.2474 0.55505,-0.67738 0.9626,-1.27775 0.90567,-1.33417 -0.0569,-0.0564 -1.37419,0.46512 -2.92722,1.15897 -2.83402,1.26617 -6.31432,3.43947 -8.28881,5.17602 l -1.05833,0.9308 0.79375,-0.1584 c 0.43656,-0.0871 1.39754,-0.32373 2.13551,-0.52582 z m -61.793229,-3.37318 c -1.12308,-1.66409 -2.02367,-3.78347 -2.67432,-6.29359 -0.43984,-1.69683 -0.53329,-2.73223 -0.46269,-5.12631 0.0487,-1.65002 0.0138,-2.95366 -0.0774,-2.897 -0.0912,0.0567 -0.31087,0.6706 -0.48807,1.3643 -1.37715,5.39134 -0.42443,9.72663 2.83734,12.91123 0.81362,0.79436 1.524,1.39961 1.57862,1.34499 0.0546,-0.0546 -0.26643,-0.64125 -0.71346,-1.30362 z m 7.0776,-4.85981 c -0.27904,-0.82657 -0.67445,-2.77462 -0.87868,-4.329 -0.20422,-1.55438 -0.6105,-3.38414 -0.90284,-4.06613 -0.82178,-1.91714 -1.3306,-4.16888 -1.35924,-6.01521 l -0.0261,-1.6816 -0.67307,1.98438 c -0.55782,1.64458 -0.67085,2.46008 -0.66009,4.7625 0.0149,3.18133 0.57838,5.3823 1.93059,7.54062 0.81832,1.30617 2.57722,3.30729 2.90696,3.30729 0.0934,0 -0.0585,-0.67628 -0.33754,-1.50285 z m -5.75609,-2.53204 c -0.56077,-1.20055 -1.10232,-2.63061 -1.20345,-3.17793 -0.25296,-1.36902 -0.57213,-1.45751 -0.78176,-0.21674 -0.28953,1.71371 0.53875,3.87468 1.83833,4.79621 0.58768,0.41672 1.09055,0.76298 1.11749,0.76947 0.0269,0.006 -0.40983,-0.97047 -0.97061,-2.17101 z m 35.217149,-3.175 c 1.07775,-1.05503 2.87086,-2.52915 3.98469,-3.27583 l 2.02514,-1.3576 -1.54948,-1.94969 c -5.09886,-6.41583 -13.75533,-9.80304 -18.66433,-7.30323 -1.28024,0.65194 -3.2905,2.54908 -3.2905,3.10534 0,0.1451 0.32742,0.26523 0.7276,0.26696 2.21582,0.01 5.64266,1.59065 8.27305,3.81704 2.03791,1.72491 4.75231,5.07445 5.73721,7.07965 0.40714,0.82892 0.75304,1.51353 0.76867,1.52135 0.0156,0.008 0.9102,-0.84897 1.98795,-1.90399 z m 13.54879,-6.98824 c 0.34386,-0.34386 -3.9689,-1.95109 -6.2631,-2.33407 l -1.0167,-0.16972 0.75212,0.9508 c 0.41366,0.52294 0.99024,0.9999 1.28128,1.05991 0.29104,0.06 1.00542,0.22262 1.5875,0.36136 1.26138,0.30064 3.41253,0.37809 3.6589,0.13172 z m -35.80577,-4.70513 c 0,-0.3811 0.18478,-1.13515 0.41063,-1.67568 l 0.41063,-0.98278 -0.96232,0.92513 c -1.192679,1.14659 -2.120049,2.6908 -2.626429,4.37334 l -0.38728,1.28684 1.57738,-1.61698 c 1.11361,-1.14156 1.577389,-1.8207 1.577389,-2.30987 z m 34.925,-0.13661 c -2.99868,-2.49143 -6.20421,-3.71165 -9.65729,-3.67616 -1.30969,0.0135 -2.73844,0.11075 -3.17501,0.21619 -0.71605,0.17295 -0.74195,0.21339 -0.26458,0.41319 0.29104,0.12182 0.95884,0.5024 1.48399,0.84575 0.68045,0.44488 2.54318,0.95617 6.48229,1.77928 3.04011,0.63526 5.64653,1.16314 5.79206,1.17308 0.14552,0.01 -0.15214,-0.32817 -0.66146,-0.75133 z m -12.03855,-6.49185 c 4.74802,-1.61783 4.93162,-1.70481 3.3073,-1.56673 -2.19566,0.18664 -4.2142,0.7517 -6.07159,1.69965 -1.3844,0.70656 -2.68718,1.56312 -2.39508,1.57473 0.0728,0.003 2.39448,-0.76555 5.15937,-1.70765 z m 45.84976,21.82412 c -0.25421,-0.90032 -3.06086,-5.11988 -4.45803,-6.70227 l -1.13171,-1.28175 0.86115,-1.74632 0.86116,-1.74633 0.89065,1.0437 c 2.18929,2.5655 3.36186,5.82857 3.24225,9.02258 -0.0516,1.37691 -0.1409,1.85153 -0.26547,1.41039 z m -29.3133,-24.77963 c -2.73399,-1.00338 -7.65548,-2.20443 -9.03299,-2.20443 -1.2769,0 -0.61453,-0.39981 1.36008,-0.82095 3.39285,-0.72362 8.47975,-0.25603 10.96847,1.00823 0.44302,0.22505 0.83699,0.43546 0.87549,0.46759 0.12888,0.10752 -1.30345,2.52046 -1.48169,2.49608 -0.0967,-0.0132 -1.30691,-0.43916 -2.68936,-0.94652 z"
       id="path1"
       sodipodi:nodetypes="sssscssssssssscccssscssssssccsscssssscccssssssssscscssscscccsssssccsscssssssscscsssssscsssssssccsscsscsssssssssscscssscssscssscscssssccsscsssssscsssssssscsssssssssscsssssssssssssssssssssssssscssscssscssssssssssssssssssssssssssssssssssssssssssssssssssssssssssssssssssscssssccssssssssscsssssssssscssscssscsscssscsssssscsscssscsssscsssscssscccssssssssss" />
    <text
       xml:space="preserve"
       style="font-size:63.9605px;font-family:'Protest Strike';-inkscape-font-specification:'Protest Strike';fill:#1a1a1a;stroke-width:0.799503"
       x="186.81886"
       y="188.81578"
       id="text2"><tspan
         sodipodi:role="line"
         id="tspan1"
         style="fill:#1a1a1a;stroke-width:0.799503"
         x="186.81886"
         y="188.81578">nest</tspan></text>
  </g>
</svg>
